<svg width="5084" height="812" viewBox="0 0 5084 812" fill="none" xmlns="http://www.w3.org/2000/svg">
<path d="M1513 631H1422.4V278.2H1306V202.6H1629.4V278.2H1513V631Z" fill="#003366"/>
<path d="M1781.38 297.4C1785.78 297.4 1790.98 297.6 1796.98 298C1802.98 298.4 1807.78 299 1811.38 299.8L1804.78 383.8C1801.98 383 1797.78 382.4 1792.18 382C1786.98 381.2 1782.38 380.8 1778.38 380.8C1766.78 380.8 1755.58 382.4 1744.78 385.6C1733.98 388.4 1724.18 393 1715.38 399.4C1706.98 405.8 1700.18 414.4 1694.98 425.2C1690.18 435.6 1687.78 448.6 1687.78 464.2V631H1598.38V303.4H1666.18L1679.38 358.6H1683.58C1689.98 347.4 1697.98 337.2 1707.58 328C1717.18 318.8 1728.18 311.4 1740.58 305.8C1753.38 300.2 1766.98 297.4 1781.38 297.4Z" fill="#003366"/>
<path d="M2111.44 303.4V631H2043.04L2031.04 589H2026.24C2019.44 600.2 2010.64 609.4 1999.84 616.6C1989.44 623.4 1977.84 628.4 1965.04 631.6C1952.24 635.2 1939.04 637 1925.44 637C1902.24 637 1881.84 632.8 1864.24 624.4C1846.64 616 1833.04 603 1823.44 585.4C1813.84 567.8 1809.04 545 1809.04 517V303.4H1898.44V494.8C1898.44 518 1902.64 535.6 1911.04 547.6C1919.44 559.6 1932.84 565.6 1951.24 565.6C1969.64 565.6 1983.84 561.4 1993.84 553C2004.24 544.6 2011.44 532.4 2015.44 516.4C2019.84 500.4 2022.04 480.8 2022.04 457.6V303.4H2111.44Z" fill="#003366"/>
<path d="M2278.38 637C2245.98 637 2218.38 631.2 2195.57 619.6C2172.77 607.6 2155.38 589.2 2143.38 564.4C2131.38 539.6 2125.38 507.8 2125.38 469C2125.38 429 2132.17 396.4 2145.77 371.2C2159.38 346 2178.18 327.4 2202.18 315.4C2226.57 303.4 2254.57 297.4 2286.18 297.4C2308.57 297.4 2327.98 299.6 2344.38 304C2361.18 308.4 2375.78 313.6 2388.18 319.6L2361.77 388.6C2347.77 383 2334.57 378.4 2322.18 374.8C2310.18 371.2 2298.18 369.4 2286.18 369.4C2270.57 369.4 2257.57 373.2 2247.18 380.8C2236.78 388 2228.97 399 2223.77 413.8C2218.97 428.2 2216.57 446.4 2216.57 468.4C2216.57 490 2219.18 508 2224.38 522.4C2229.98 536.4 2237.98 547 2248.38 554.2C2258.77 561 2271.38 564.4 2286.18 564.4C2304.98 564.4 2321.58 562 2335.98 557.2C2350.38 552 2364.38 545 2377.98 536.2V612.4C2364.38 621.2 2349.97 627.4 2334.77 631C2319.97 635 2301.18 637 2278.38 637Z" fill="#003366"/>
<path d="M2690.98 466.6C2690.98 493.8 2687.18 518 2679.58 539.2C2672.38 560.4 2661.78 578.4 2647.78 593.2C2634.18 607.6 2617.58 618.6 2597.98 626.2C2578.38 633.4 2556.18 637 2531.38 637C2508.58 637 2487.38 633.4 2467.78 626.2C2448.58 618.6 2431.98 607.6 2417.98 593.2C2403.98 578.4 2392.98 560.4 2384.98 539.2C2377.38 518 2373.58 493.8 2373.58 466.6C2373.58 430.2 2379.98 399.6 2392.78 374.8C2405.58 349.6 2423.98 330.4 2447.98 317.2C2471.98 304 2500.38 297.4 2533.18 297.4C2563.98 297.4 2591.18 304 2614.78 317.2C2638.38 330.4 2656.98 349.6 2670.58 374.8C2684.18 399.6 2690.98 430.2 2690.98 466.6ZM2464.78 466.6C2464.78 488.2 2466.98 506.4 2471.38 521.2C2476.18 535.6 2483.58 546.6 2493.58 554.2C2503.58 561.4 2516.58 565 2532.58 565C2548.58 565 2561.38 561.4 2570.98 554.2C2580.98 546.6 2588.18 535.6 2592.58 521.2C2597.38 506.4 2599.78 488.2 2599.78 466.6C2599.78 445 2597.38 427 2592.58 412.6C2588.18 398.2 2580.98 387.4 2570.98 380.2C2560.98 373 2547.98 369.4 2531.98 369.4C2508.38 369.4 2491.18 377.6 2480.38 394C2469.98 410 2464.78 434.2 2464.78 466.6Z" fill="#003366"/>
<path d="M2904.52 637C2868.12 637 2838.32 622.8 2815.12 594.4C2792.32 565.6 2780.92 523.4 2780.92 467.8C2780.92 411.8 2792.52 369.4 2815.72 340.6C2838.92 311.8 2869.32 297.4 2906.92 297.4C2922.52 297.4 2936.32 299.6 2948.32 304C2960.32 308 2970.52 313.6 2978.92 320.8C2987.72 328 2995.12 336.2 3001.12 345.4H3004.12C3002.92 339 3001.52 329.8 2999.92 317.8C2998.32 305.4 2997.52 292.8 2997.52 280V175H3086.92V631H3018.52L3001.12 588.4H2997.52C2991.92 597.2 2984.72 605.4 2975.92 613C2967.52 620.2 2957.52 626 2945.92 630.4C2934.32 634.8 2920.52 637 2904.52 637ZM2935.72 565.6C2960.52 565.6 2977.92 558.4 2987.92 544C2997.92 529.2 3003.12 507.2 3003.52 478V468.4C3003.52 436.4 2998.52 412 2988.52 395.2C2978.92 378.4 2960.92 370 2934.52 370C2914.92 370 2899.52 378.6 2888.32 395.8C2877.12 412.6 2871.52 437 2871.52 469C2871.52 501 2877.12 525.2 2888.32 541.6C2899.52 557.6 2915.32 565.6 2935.72 565.6Z" fill="#003366"/>
<path d="M3254.81 296.8C3298.81 296.8 3332.41 306.4 3355.61 325.6C3379.21 344.4 3391.01 373.4 3391.01 412.6V631H3328.61L3311.21 586.6H3308.81C3299.61 598.2 3290.01 607.8 3280.01 615.4C3270.41 623 3259.21 628.4 3246.41 631.6C3234.01 635.2 3218.61 637 3200.21 637C3181.01 637 3163.61 633.4 3148.01 626.2C3132.81 618.6 3120.81 607.2 3112.01 592C3103.21 576.4 3098.81 556.8 3098.81 533.2C3098.81 498.4 3111.01 472.8 3135.41 456.4C3159.81 439.6 3196.41 430.4 3245.21 428.8L3302.21 427V412.6C3302.21 395.4 3297.61 382.8 3288.41 374.8C3279.61 366.8 3267.21 362.8 3251.21 362.8C3235.21 362.8 3219.61 365.2 3204.41 370C3189.21 374.4 3174.01 380 3158.81 386.8L3129.41 326.2C3147.01 317 3166.41 309.8 3187.61 304.6C3209.21 299.4 3231.61 296.8 3254.81 296.8ZM3267.41 480.4C3238.61 481.2 3218.61 486.4 3207.41 496C3196.21 505.6 3190.61 518.2 3190.61 533.8C3190.61 547.4 3194.61 557.2 3202.61 563.2C3210.61 568.8 3221.01 571.6 3233.81 571.6C3253.01 571.6 3269.21 566 3282.41 554.8C3295.61 543.2 3302.21 527 3302.21 506.2V479.2L3267.41 480.4Z" fill="#003366"/>
<path d="M3688.18 390.4H3857.98V612.4C3835.58 620 3812.18 626 3787.78 630.4C3763.78 634.8 3736.38 637 3705.58 637C3663.18 637 3626.98 628.6 3596.98 611.8C3567.38 595 3544.78 570.2 3529.18 537.4C3513.98 504.6 3506.38 464.2 3506.38 416.2C3506.38 371.4 3514.98 332.6 3532.18 299.8C3549.78 267 3575.18 241.6 3608.38 223.6C3641.58 205.6 3682.18 196.6 3730.18 196.6C3752.98 196.6 3775.38 199 3797.38 203.8C3819.38 208.6 3839.38 215 3857.38 223L3827.38 295.6C3814.18 288.8 3799.18 283.2 3782.38 278.8C3765.58 274.4 3747.98 272.2 3729.58 272.2C3703.18 272.2 3680.18 278.2 3660.58 290.2C3641.38 302.2 3626.38 319.2 3615.58 341.2C3605.18 362.8 3599.98 388.4 3599.98 418C3599.98 446 3603.78 470.8 3611.38 492.4C3618.98 514 3630.98 531 3647.38 543.4C3663.78 555.4 3685.18 561.4 3711.58 561.4C3720.38 561.4 3727.98 561.2 3734.38 560.8C3741.18 560 3747.38 559.2 3752.98 558.4C3758.58 557.2 3763.98 556.2 3769.18 555.4V466H3688.18V390.4Z" fill="#003366"/>
<path d="M4026.96 296.8C4070.96 296.8 4104.56 306.4 4127.76 325.6C4151.36 344.4 4163.16 373.4 4163.16 412.6V631H4100.76L4083.36 586.6H4080.96C4071.76 598.2 4062.16 607.8 4052.16 615.4C4042.56 623 4031.36 628.4 4018.56 631.6C4006.16 635.2 3990.76 637 3972.36 637C3953.16 637 3935.76 633.4 3920.16 626.2C3904.96 618.6 3892.96 607.2 3884.16 592C3875.36 576.4 3870.96 556.8 3870.96 533.2C3870.96 498.4 3883.16 472.8 3907.56 456.4C3931.96 439.6 3968.56 430.4 4017.36 428.8L4074.36 427V412.6C4074.36 395.4 4069.76 382.8 4060.56 374.8C4051.76 366.8 4039.36 362.8 4023.36 362.8C4007.36 362.8 3991.76 365.2 3976.56 370C3961.36 374.4 3946.16 380 3930.96 386.8L3901.56 326.2C3919.16 317 3938.56 309.8 3959.76 304.6C3981.36 299.4 4003.76 296.8 4026.96 296.8ZM4039.56 480.4C4010.76 481.2 3990.76 486.4 3979.56 496C3968.36 505.6 3962.76 518.2 3962.76 533.8C3962.76 547.4 3966.76 557.2 3974.76 563.2C3982.76 568.8 3993.16 571.6 4005.96 571.6C4025.16 571.6 4041.36 566 4054.56 554.8C4067.76 543.2 4074.36 527 4074.36 506.2V479.2L4039.56 480.4Z" fill="#003366"/>
<path d="M4284.07 631H4194.67V175H4284.07V631Z" fill="#003366"/>
<path d="M4452.48 297.4C4482.88 297.4 4508.88 303.2 4530.48 314.8C4552.48 326.4 4569.48 343.2 4581.48 365.2C4593.48 387.2 4599.48 414.2 4599.48 446.2V489.4H4388.28C4389.08 514.6 4396.48 534.4 4410.48 548.8C4424.88 563.2 4444.68 570.4 4469.88 570.4C4491.08 570.4 4510.28 568.4 4527.48 564.4C4544.68 560 4562.48 553.4 4580.88 544.6V613.6C4564.88 621.6 4547.88 627.4 4529.88 631C4512.28 635 4490.88 637 4465.68 637C4432.88 637 4403.88 631 4378.68 619C4353.48 606.6 4333.68 588 4319.28 563.2C4304.88 538.4 4297.68 507.2 4297.68 469.6C4297.68 431.2 4304.08 399.4 4316.88 374.2C4330.08 348.6 4348.28 329.4 4371.48 316.6C4394.68 303.8 4421.68 297.4 4452.48 297.4ZM4453.08 361C4435.88 361 4421.48 366.6 4409.88 377.8C4398.68 389 4392.08 406.4 4390.08 430H4515.48C4515.48 416.8 4513.08 405 4508.28 394.6C4503.88 384.2 4497.08 376 4487.88 370C4478.68 364 4467.08 361 4453.08 361Z" fill="#003366"/>
<path d="M4794.97 297.4C4799.37 297.4 4804.57 297.6 4810.57 298C4816.57 298.4 4821.37 299 4824.97 299.8L4818.37 383.8C4815.57 383 4811.37 382.4 4805.77 382C4800.57 381.2 4795.97 380.8 4791.97 380.8C4780.37 380.8 4769.17 382.4 4758.37 385.6C4747.57 388.4 4737.77 393 4728.97 399.4C4720.57 405.8 4713.77 414.4 4708.57 425.2C4703.77 435.6 4701.37 448.6 4701.37 464.2V631H4611.97V303.4H4679.77L4692.97 358.6H4697.17C4703.57 347.4 4711.57 337.2 4721.17 328C4730.77 318.8 4741.77 311.4 4754.17 305.8C4766.97 300.2 4780.57 297.4 4794.97 297.4Z" fill="#003366"/>
<path d="M4947.11 296.8C4991.11 296.8 5024.71 306.4 5047.91 325.6C5071.51 344.4 5083.31 373.4 5083.31 412.6V631H5020.91L5003.51 586.6H5001.11C4991.91 598.2 4982.31 607.8 4972.31 615.4C4962.71 623 4951.51 628.4 4938.71 631.6C4926.31 635.2 4910.91 637 4892.51 637C4873.31 637 4855.91 633.4 4840.31 626.2C4825.11 618.6 4813.11 607.2 4804.31 592C4795.51 576.4 4791.11 556.8 4791.11 533.2C4791.11 498.4 4803.31 472.8 4827.71 456.4C4852.11 439.6 4888.71 430.4 4937.51 428.8L4994.51 427V412.6C4994.51 395.4 4989.91 382.8 4980.71 374.8C4971.91 366.8 4959.51 362.8 4943.51 362.8C4927.51 362.8 4911.91 365.2 4896.71 370C4881.51 374.4 4866.31 380 4851.11 386.8L4821.71 326.2C4839.31 317 4858.71 309.8 4879.91 304.6C4901.51 299.4 4923.91 296.8 4947.11 296.8ZM4959.71 480.4C4930.91 481.2 4910.91 486.4 4899.71 496C4888.51 505.6 4882.91 518.2 4882.91 533.8C4882.91 547.4 4886.91 557.2 4894.91 563.2C4902.91 568.8 4913.31 571.6 4926.11 571.6C4945.31 571.6 4961.51 566 4974.71 554.8C4987.91 543.2 4994.51 527 4994.51 506.2V479.2L4959.71 480.4Z" fill="#003366"/>
<path d="M0 75C0 33.5787 33.5786 0 75 0H1005C1046.42 0 1080 33.5786 1080 75V737C1080 778.421 1046.42 812 1005 812H75C33.5786 812 0 778.421 0 737V75Z" fill="#003366"/>
<path d="M277 631H186.4V278.2H70V202.6H393.4V278.2H277V631Z" fill="white"/>
<path d="M453.873 637C417.473 637 387.673 622.8 364.473 594.4C341.673 565.6 330.273 523.4 330.273 467.8C330.273 411.8 341.873 369.4 365.073 340.6C388.273 311.8 418.673 297.4 456.273 297.4C471.873 297.4 485.673 299.6 497.673 304C509.673 308 519.873 313.6 528.273 320.8C537.073 328 544.473 336.2 550.473 345.4H553.473C552.273 339 550.873 329.8 549.273 317.8C547.673 305.4 546.873 292.8 546.873 280V175H636.273V631H567.873L550.473 588.4H546.873C541.273 597.2 534.073 605.4 525.273 613C516.873 620.2 506.873 626 495.273 630.4C483.673 634.8 469.873 637 453.873 637ZM485.073 565.6C509.873 565.6 527.273 558.4 537.273 544C547.273 529.2 552.473 507.2 552.873 478V468.4C552.873 436.4 547.873 412 537.873 395.2C528.273 378.4 510.273 370 483.873 370C464.273 370 448.873 378.6 437.673 395.8C426.473 412.6 420.873 437 420.873 469C420.873 501 426.473 525.2 437.673 541.6C448.873 557.6 464.673 565.6 485.073 565.6Z" fill="white"/>
<path d="M839.561 390.4H1009.36V612.4C986.961 620 963.561 626 939.161 630.4C915.161 634.8 887.761 637 856.961 637C814.561 637 778.361 628.6 748.361 611.8C718.761 595 696.161 570.2 680.561 537.4C665.361 504.6 657.761 464.2 657.761 416.2C657.761 371.4 666.361 332.6 683.561 299.8C701.161 267 726.561 241.6 759.761 223.6C792.961 205.6 833.561 196.6 881.561 196.6C904.361 196.6 926.761 199 948.761 203.8C970.761 208.6 990.761 215 1008.76 223L978.761 295.6C965.561 288.8 950.561 283.2 933.761 278.8C916.961 274.4 899.361 272.2 880.961 272.2C854.561 272.2 831.561 278.2 811.961 290.2C792.761 302.2 777.761 319.2 766.961 341.2C756.561 362.8 751.361 388.4 751.361 418C751.361 446 755.161 470.8 762.761 492.4C770.361 514 782.361 531 798.761 543.4C815.161 555.4 836.561 561.4 862.961 561.4C871.761 561.4 879.361 561.2 885.761 560.8C892.561 560 898.761 559.2 904.361 558.4C909.961 557.2 915.361 556.2 920.561 555.4V466H839.561V390.4Z" fill="white"/>
</svg>
